<svg width="45" height="45" viewBox="0 0 50 50" fill="none" xmlns="http://www.w3.org/2000/svg">
<path d="M17.0781 30.7188C17.5664 31.0665 18.1511 31.2531 18.7505 31.2526C19.3499 31.252 19.9343 31.0643 20.4219 30.7156C20.9118 30.3541 21.2828 29.8547 21.4875 29.2813L22.5719 25.9469C22.8375 25.1594 23.2781 24.4469 23.8625 23.8594C24.4469 23.275 25.1594 22.8344 25.9406 22.575L29.3344 21.4719C29.9035 21.2677 30.3941 20.8899 30.7368 20.3918C31.0795 19.8936 31.2571 19.3004 31.2443 18.6959C31.2315 18.0914 31.0291 17.5062 30.6656 17.023C30.3021 16.5398 29.796 16.183 29.2188 16.0031L25.8781 14.9219C25.092 14.6622 24.3774 14.2223 23.7914 13.6375C23.2054 13.0526 22.7643 12.3388 22.5031 11.5531L21.4 8.16563C21.201 7.60546 20.8327 7.12105 20.3461 6.77951C19.8596 6.43797 19.2788 6.2562 18.6844 6.25938C18.0817 6.25681 17.4935 6.44369 17.0029 6.7936C16.5122 7.14352 16.1439 7.63877 15.95 8.20938L14.8375 11.6156C14.5763 12.378 14.146 13.0714 13.5788 13.644C13.0117 14.2165 12.3224 14.6534 11.5625 14.9219L8.175 16.0188C7.60909 16.2187 7.11966 16.5903 6.77492 17.0816C6.43018 17.573 6.2473 18.1596 6.25177 18.7598C6.25624 19.36 6.44784 19.9438 6.79986 20.43C7.15188 20.9161 7.64679 21.2803 8.21563 21.4719L11.55 22.5563C12.337 22.8197 13.0519 23.2626 13.6382 23.85C14.2245 24.4374 14.6661 25.1531 14.9281 25.9406L16.0281 29.3156C16.225 29.8781 16.5938 30.3688 17.0813 30.7156L17.0781 30.7188ZM12.5219 19.5719L9.85 18.7438L12.55 17.8656C13.7821 17.4387 14.8995 16.7341 15.8156 15.8063C16.7281 14.8688 17.4156 13.7438 17.8281 12.5063L18.6562 9.82188L19.5313 12.5156C19.947 13.7653 20.6488 14.9006 21.5809 15.8311C22.513 16.7616 23.6496 17.4615 24.9 17.875L27.65 18.7156L24.9625 19.5906C23.7104 20.0038 22.5725 20.7046 21.6401 21.637C20.7078 22.5694 20.0069 23.7072 19.5938 24.9594L18.7656 27.6375L17.8937 24.9531C17.4815 23.6989 16.7808 22.5589 15.8478 21.6249C14.9148 20.6908 13.7756 19.9887 12.5219 19.575V19.5719ZM32.9188 43.2813C33.3437 43.5819 33.8513 43.7434 34.3719 43.7438C34.8963 43.7371 35.4058 43.5683 35.8304 43.2606C36.2551 42.9529 36.5741 42.5213 36.7438 42.025L37.5188 39.6438C37.6844 39.15 37.9656 38.6969 38.3313 38.3281C38.7 37.9594 39.15 37.6812 39.6438 37.5188L42.0563 36.7313C42.5552 36.5602 42.9873 36.2356 43.2907 35.8041C43.594 35.3725 43.7531 34.8561 43.7451 34.3286C43.7371 33.8012 43.5625 33.2898 43.2463 32.8676C42.93 32.4454 42.4883 32.1341 41.9844 31.9781L39.5969 31.2C39.1028 31.0355 38.6537 30.7585 38.2849 30.3908C37.9162 30.0231 37.6378 29.5748 37.4719 29.0813L36.6844 26.6625C36.515 26.1658 36.1935 25.735 35.7656 25.4311C35.3376 25.1273 34.8249 24.9658 34.3001 24.9696C33.7753 24.9734 33.265 25.1423 32.8415 25.4523C32.418 25.7623 32.1028 26.1977 31.9406 26.6969L31.1688 29.0781C31.0089 29.5673 30.7386 30.0132 30.3788 30.3811C30.019 30.7491 29.5793 31.0293 29.0938 31.2L26.6688 31.9906C26.3017 32.1183 25.9694 32.3297 25.6983 32.6082C25.4273 32.8866 25.2248 33.2245 25.1071 33.5949C24.9895 33.9652 24.9597 34.3579 25.0203 34.7418C25.0809 35.1257 25.2302 35.4901 25.4563 35.8063C25.7656 36.2438 26.2031 36.5719 26.7063 36.7438L29.0906 37.5156C29.5906 37.6813 30.0406 37.9625 30.4094 38.3313C30.7813 38.7 31.0563 39.1531 31.2156 39.65L32.0062 42.0688C32.1774 42.5577 32.4963 42.9814 32.9188 43.2813ZM30.0625 34.5531L29.5063 34.3688L30.0813 34.1688C31.0289 33.8407 31.8883 33.2988 32.5928 32.5851C33.2973 31.8713 33.828 31.005 34.1438 30.0531L34.325 29.4969L34.5125 30.0625C34.8307 31.0207 35.3681 31.8915 36.0821 32.6054C36.796 33.3194 37.6668 33.8568 38.625 34.175L39.2344 34.3719L38.6719 34.5563C37.7115 34.8758 36.8392 35.4155 36.1246 36.1323C35.41 36.8491 34.8729 37.723 34.5563 38.6844L34.3719 39.25L34.1906 38.6844C33.8741 37.7211 33.336 36.8455 32.6196 36.128C31.9032 35.4105 31.0284 34.8711 30.0656 34.5531H30.0625Z" fill="#35404F"/>
</svg>
