<svg width="45" height="45" viewBox="0 0 45 45" fill="none" xmlns="http://www.w3.org/2000/svg">
<path d="M31.3481 37.035L30.1481 27.4275C29.9781 26.0667 29.3167 24.8148 28.2884 23.9074C27.2602 23 25.9358 22.4995 24.5644 22.5H20.4319C19.0611 22.5004 17.7377 23.0013 16.7102 23.9087C15.6827 24.816 15.0219 26.0673 14.8519 27.4275L13.65 37.035C13.584 37.5628 13.6311 38.0987 13.7882 38.6069C13.9452 39.1151 14.2085 39.5842 14.5607 39.9828C14.9129 40.3815 15.3459 40.7006 15.8309 40.9191C16.3159 41.1376 16.8418 41.2504 17.3738 41.25H27.6263C28.158 41.2501 28.6838 41.1371 29.1685 40.9185C29.6533 40.6999 30.0861 40.3807 30.4381 39.9821C30.79 39.5835 31.0532 39.1146 31.2101 38.6065C31.367 38.0983 31.4141 37.5627 31.3481 37.035V37.035Z" stroke="#35404F" stroke-width="3.75" stroke-linecap="round" stroke-linejoin="round"/>
<path d="M22.5 15C25.6066 15 28.125 12.4816 28.125 9.375C28.125 6.2684 25.6066 3.75 22.5 3.75C19.3934 3.75 16.875 6.2684 16.875 9.375C16.875 12.4816 19.3934 15 22.5 15Z" stroke="#35404F" stroke-width="3.75"/>
<path d="M7.5 20.625C9.57107 20.625 11.25 18.9461 11.25 16.875C11.25 14.8039 9.57107 13.125 7.5 13.125C5.42893 13.125 3.75 14.8039 3.75 16.875C3.75 18.9461 5.42893 20.625 7.5 20.625Z" stroke="#35404F" stroke-width="3.75"/>
<path d="M37.5 20.625C39.5711 20.625 41.25 18.9461 41.25 16.875C41.25 14.8039 39.5711 13.125 37.5 13.125C35.4289 13.125 33.75 14.8039 33.75 16.875C33.75 18.9461 35.4289 20.625 37.5 20.625Z" stroke="#35404F" stroke-width="3.75"/>
<path d="M7.50001 26.25H6.92626C6.03856 26.2499 5.17961 26.5647 4.50221 27.1384C3.82482 27.7121 3.37291 28.5075 3.22688 29.3831L2.60251 33.1331C2.51291 33.6704 2.54142 34.2207 2.68608 34.7459C2.83073 35.271 3.08804 35.7583 3.44012 36.1739C3.7922 36.5895 4.2306 36.9235 4.72481 37.1525C5.21902 37.3815 5.75719 37.5001 6.30188 37.5H13.125" stroke="#35404F" stroke-width="3.75" stroke-linecap="round" stroke-linejoin="round"/>
<path d="M37.5 26.25H38.0737C38.9614 26.2499 39.8204 26.5647 40.4978 27.1384C41.1752 27.7121 41.6271 28.5075 41.7731 29.3831L42.3975 33.1331C42.4871 33.6704 42.4586 34.2207 42.3139 34.7459C42.1693 35.271 41.912 35.7583 41.5599 36.1739C41.2078 36.5895 40.7694 36.9235 40.2752 37.1525C39.781 37.3815 39.2428 37.5001 38.6981 37.5H31.875" stroke="#35404F" stroke-width="3.75" stroke-linecap="round" stroke-linejoin="round"/>
</svg>
