<svg width="45" height="45" viewBox="0 0 45 45" fill="none" xmlns="http://www.w3.org/2000/svg">
<path d="M22.4921 38.2575C22.8999 38.2575 23.2939 38.4051 23.6013 38.6728C23.9086 38.9406 24.1085 39.3104 24.164 39.714L24.1797 39.9433V43.3148C24.1796 43.7419 24.0172 44.153 23.7253 44.4651C23.4334 44.7772 23.0337 44.967 22.6071 44.9961C22.1806 45.0252 21.7588 44.8915 21.4271 44.6219C21.0954 44.3524 20.8785 43.9671 20.8202 43.544L20.8045 43.3148V39.9433C20.8045 39.4962 20.9823 39.0674 21.2988 38.7513C21.6153 38.4351 22.0445 38.2575 22.4921 38.2575ZM36.0426 33.5981L38.4278 35.9829C38.7259 36.3024 38.8882 36.7251 38.8805 37.1618C38.8727 37.5986 38.6956 38.0152 38.3864 38.3241C38.0772 38.633 37.6601 38.8099 37.2229 38.8176C36.7857 38.8253 36.3625 38.6632 36.0426 38.3654L33.6552 35.9829C33.4894 35.8285 33.3564 35.6424 33.2641 35.4357C33.1719 35.2289 33.1223 35.0056 33.1183 34.7793C33.1143 34.553 33.156 34.3281 33.2409 34.1182C33.3257 33.9083 33.4521 33.7176 33.6123 33.5576C33.7726 33.3975 33.9635 33.2713 34.1736 33.1865C34.3838 33.1017 34.6088 33.0601 34.8354 33.0641C35.062 33.0681 35.2855 33.1176 35.4925 33.2098C35.6995 33.3019 35.8858 33.4347 36.0404 33.6004L36.0426 33.5981ZM11.3268 33.5981C11.4836 33.7547 11.608 33.9405 11.6929 34.1451C11.7778 34.3497 11.8215 34.569 11.8215 34.7905C11.8215 35.012 11.7778 35.2313 11.6929 35.4358C11.608 35.6404 11.4836 35.8263 11.3268 35.9829L8.94163 38.3654C8.78713 38.531 8.60082 38.6639 8.39381 38.756C8.18679 38.8481 7.96332 38.8977 7.73672 38.9017C7.51012 38.9057 7.28504 38.864 7.0749 38.7793C6.86477 38.6945 6.67388 38.5683 6.51362 38.4082C6.35337 38.2481 6.22703 38.0574 6.14216 37.8475C6.05728 37.6376 6.01559 37.4128 6.01959 37.1865C6.02359 36.9601 6.07319 36.7369 6.16543 36.5301C6.25766 36.3233 6.39065 36.1372 6.55646 35.9829L8.94163 33.6004C9.25806 33.2847 9.687 33.1073 10.1342 33.1073C10.5814 33.1073 11.0104 33.2847 11.3268 33.6004V33.5981ZM22.5011 10.0853C25.7983 10.0853 28.9605 11.3936 31.292 13.7225C33.6235 16.0514 34.9333 19.2101 34.9333 22.5036C34.9333 25.7972 33.6235 28.9558 31.292 31.2847C28.9605 33.6136 25.7983 34.922 22.5011 34.922C19.2039 34.922 16.0417 33.6136 13.7103 31.2847C11.3788 28.9558 10.069 25.7972 10.069 22.5036C10.069 19.2101 11.3788 16.0514 13.7103 13.7225C16.0417 11.3936 19.2039 10.0853 22.5011 10.0853ZM22.5011 13.4568C21.3117 13.4568 20.134 13.6908 19.0352 14.1454C17.9364 14.6001 16.9379 15.2665 16.0969 16.1065C15.2559 16.9466 14.5888 17.9439 14.1336 19.0415C13.6785 20.1392 13.4442 21.3156 13.4442 22.5036C13.4442 23.6917 13.6785 24.8681 14.1336 25.9657C14.5888 27.0633 15.2559 28.0606 16.0969 28.9007C16.9379 29.7408 17.9364 30.4072 19.0352 30.8618C20.134 31.3165 21.3117 31.5505 22.5011 31.5505C24.9032 31.5505 27.2068 30.5973 28.9053 28.9007C30.6038 27.2041 31.558 24.903 31.558 22.5036C31.558 20.1043 30.6038 17.8032 28.9053 16.1065C27.2068 14.4099 24.9032 13.4568 22.5011 13.4568ZM20.8135 15.7584C21.2213 15.7584 21.6153 15.9059 21.9227 16.1737C22.23 16.4414 22.4299 16.8113 22.4854 17.2149L22.5011 17.4441V22.5081H25.3138C25.722 22.5082 26.1163 22.6561 26.4237 22.9243C26.7311 23.1925 26.9307 23.5629 26.9857 23.9669L26.9992 24.1961C26.9992 24.6035 26.8515 24.9971 26.5834 25.3041C26.3154 25.6111 25.9451 25.8107 25.5411 25.8661L25.3116 25.8819H20.8112C20.4035 25.8812 20.0097 25.7331 19.7028 25.465C19.3959 25.1968 19.1965 24.8267 19.1416 24.4231L19.1259 24.1961V17.4441C19.1259 16.997 19.3037 16.5683 19.6202 16.2521C19.9367 15.936 20.3659 15.7584 20.8135 15.7584ZM43.3151 20.8561C43.7425 20.8568 44.1537 21.0194 44.4657 21.3112C44.7777 21.603 44.9673 22.0021 44.9962 22.4281C45.025 22.854 44.891 23.275 44.6212 23.6061C44.3513 23.9372 43.9658 24.1537 43.5424 24.2119L43.3151 24.2276H39.9399C39.5123 24.2275 39.1007 24.0652 38.7883 23.7736C38.4758 23.482 38.2858 23.0829 38.2567 22.6567C38.2276 22.2306 38.3614 21.8093 38.6313 21.478C38.9011 21.1467 39.2868 20.93 39.7104 20.8718L39.9399 20.8561H43.3151ZM5.06235 20.7909C5.48994 20.791 5.90153 20.9533 6.21397 21.2449C6.5264 21.5365 6.71639 21.9356 6.74553 22.3618C6.77468 22.7879 6.64081 23.2092 6.37097 23.5405C6.10114 23.8718 5.71546 24.0885 5.29187 24.1467L5.06235 24.1624H1.68711C1.25952 24.1623 0.84793 24 0.535493 23.7084C0.223056 23.4169 0.0330715 23.0177 0.0039274 22.5916C-0.0252167 22.1654 0.108653 21.7442 0.378486 21.4128C0.648319 21.0815 1.034 20.8649 1.45759 20.8066L1.68711 20.7909H5.06235ZM8.75262 6.47328L8.94163 6.63511L11.3268 9.01539C11.6295 9.3158 11.8071 9.71962 11.8237 10.1456C11.8404 10.5715 11.6949 10.9879 11.4165 11.311C11.1381 11.634 10.7476 11.8398 10.3235 11.8868C9.89933 11.9338 9.47313 11.8185 9.13065 11.5642L8.94163 11.4002L6.55646 9.01763C6.25373 8.71722 6.07617 8.3134 6.05952 7.88747C6.04288 7.46154 6.18838 7.04512 6.46675 6.72205C6.74512 6.39898 7.13568 6.19323 7.55981 6.14624C7.98394 6.09925 8.41014 6.2145 8.75262 6.46878V6.47328ZM38.4278 6.63511C38.7136 6.92054 38.8874 7.29894 38.9175 7.70152C38.9477 8.10409 38.8322 8.50411 38.592 8.82883L38.4278 9.01763L36.0426 11.4024C35.7419 11.7048 35.3376 11.8822 34.9112 11.8988C34.4848 11.9154 34.0679 11.7701 33.7445 11.492C33.421 11.214 33.2151 10.8238 33.168 10.4002C33.121 9.97652 33.2364 9.55079 33.4909 9.20869L33.6552 9.01539L36.0404 6.63286C36.1971 6.47621 36.3832 6.35194 36.588 6.26716C36.7928 6.18237 37.0124 6.13873 37.2341 6.13873C37.4558 6.13873 37.6753 6.18237 37.8801 6.26716C38.085 6.35194 38.271 6.47621 38.4278 6.63286V6.63511ZM22.5011 0C22.9089 1.71787e-05 23.3029 0.147543 23.6103 0.415295C23.9176 0.683046 24.1175 1.05291 24.173 1.45649L24.1887 1.68575V5.05725C24.1886 5.48436 24.0262 5.89549 23.7343 6.20758C23.4424 6.51967 23.0427 6.70945 22.6161 6.73856C22.1896 6.76767 21.7678 6.63395 21.4361 6.36442C21.1044 6.09488 20.8875 5.70963 20.8292 5.28651L20.8135 5.05725V1.68575C20.8135 1.23866 20.9913 0.809884 21.3078 0.493745C21.6243 0.177605 22.0535 0 22.5011 0Z" fill="#35404F"/>
</svg>
