<svg width="45" height="45" viewBox="0 0 45 45" fill="none" xmlns="http://www.w3.org/2000/svg">
<path d="M22.75 41.25C33.1056 41.25 41.5 32.8556 41.5 22.5C41.5 12.1444 33.1056 3.75 22.75 3.75C12.3944 3.75 4 12.1444 4 22.5C4 32.8556 12.3944 41.25 22.75 41.25Z" stroke="#35404F" stroke-width="3.75"/>
<path d="M27.4572 40.6406C25.7003 38.8425 25.0675 37.1719 25.5597 35.6269C26.2975 33.3094 27.5153 33.4463 28.0459 32.0138C28.5766 30.5813 27.0775 28.5403 30.4038 26.7966C32.6219 25.6341 35.6725 26.9803 39.5528 30.8381M5.875 29.0494C8.3425 30.0384 10.1191 30.0384 11.2038 29.0494C12.8313 27.5644 11.4269 23.0606 13.7069 21.8184C15.985 20.5763 19.4584 26.0822 22.7041 24.2709C25.9497 22.4588 22.3984 17.6269 24.6503 15.6684C26.9031 13.7091 29.8319 15.9188 30.3438 12.6431C30.8556 9.36844 27.955 10.7888 27.3981 7.69313C27.0278 5.63063 27.0278 4.54594 27.3981 4.44L5.875 29.0494Z" stroke="#35404F" stroke-width="3.75" stroke-linecap="round"/>
</svg>
