<svg width="45" height="45" viewBox="0 0 45 45" fill="none" xmlns="http://www.w3.org/2000/svg">
<path d="M22.5 18.75C25.6066 18.75 28.125 16.2316 28.125 13.125C28.125 10.0184 25.6066 7.5 22.5 7.5C19.3934 7.5 16.875 10.0184 16.875 13.125C16.875 16.2316 19.3934 18.75 22.5 18.75Z" stroke="#B85B35" stroke-width="3.75" stroke-linecap="round" stroke-linejoin="round"/>
<path d="M31.875 35.625C34.9816 35.625 37.5 33.1066 37.5 30C37.5 26.8934 34.9816 24.375 31.875 24.375C28.7684 24.375 26.25 26.8934 26.25 30C26.25 33.1066 28.7684 35.625 31.875 35.625Z" stroke="#B85B35" stroke-width="3.75" stroke-linecap="round" stroke-linejoin="round"/>
<path d="M13.125 35.625C16.2316 35.625 18.75 33.1066 18.75 30C18.75 26.8934 16.2316 24.375 13.125 24.375C10.0184 24.375 7.5 26.8934 7.5 30C7.5 33.1066 10.0184 35.625 13.125 35.625Z" stroke="#B85B35" stroke-width="3.75" stroke-linecap="round" stroke-linejoin="round"/>
</svg>
