<svg width="65" height="44" viewBox="0 0 65 44" fill="none" xmlns="http://www.w3.org/2000/svg">
<path d="M5.41667 26.9668C6.16898 26.9668 6.6956 26.6517 6.99653 26.0216C7.29745 25.3914 7.29745 24.7612 6.99653 24.1311C6.6956 23.5009 6.16898 23.1858 5.41667 23.1858C4.66435 23.1858 4.13773 23.5009 3.83681 24.1311C3.53588 24.7612 3.53588 25.3914 3.83681 26.0216C4.13773 26.6517 4.66435 26.9668 5.41667 26.9668ZM46.9727 25.2536C46.7846 24.9976 46.4225 24.5052 45.8865 23.7766C45.3505 23.048 44.9602 22.5163 44.7157 22.1815C44.4712 21.8467 44.1139 21.3643 43.6437 20.7341C43.1735 20.104 42.7738 19.5821 42.4447 19.1686C42.1155 18.755 41.7347 18.2922 41.3021 17.7802C40.8695 17.2682 40.4463 16.7858 40.0326 16.3328L36.5061 20.4683C34.945 22.3194 32.9843 23.2252 30.6239 23.1858C28.2635 23.1465 26.331 22.1815 24.8264 20.291C23.7543 18.9322 23.223 17.3765 23.2324 15.6239C23.2418 13.8713 23.792 12.3254 24.8828 10.9863L29.8763 4.90129C29.4625 4.68467 28.9829 4.52221 28.4375 4.4139C27.8921 4.30559 27.4454 4.24651 27.0974 4.23666C26.7495 4.22682 26.2182 4.23174 25.5035 4.25143C24.7888 4.27113 24.328 4.28097 24.1211 4.28097C22.3908 4.28097 20.9049 4.93083 19.6636 6.23054L15.2062 10.8977H10.8333V26.9668C10.9274 26.9668 11.1249 26.9619 11.4258 26.952C11.7267 26.9422 11.9336 26.9422 12.0464 26.952C12.1593 26.9619 12.3427 26.9816 12.5966 27.0111C12.8505 27.0407 13.0433 27.085 13.1749 27.144C13.3066 27.2031 13.4711 27.2868 13.6686 27.3951C13.8661 27.5034 14.0401 27.6364 14.1905 27.7939L22.5694 36.4192C24.7323 38.6051 26.867 39.6981 28.9735 39.6981C30.4405 39.6981 31.616 39.2353 32.5 38.3097C33.572 38.7036 34.63 38.6248 35.6738 38.0734C36.7177 37.522 37.3995 36.6851 37.7192 35.5626C39.111 35.6808 40.3053 35.2475 41.3021 34.2629C41.6782 33.9084 42.0168 33.4604 42.3177 32.9189C42.6186 32.3773 42.7503 31.8801 42.7127 31.4272C42.9008 31.6241 43.3051 31.7226 43.9258 31.7226C44.7345 31.7226 45.4586 31.5158 46.0981 31.1022C46.7376 30.6887 47.2031 30.1669 47.4946 29.5367C47.7861 28.9065 47.8989 28.2025 47.8331 27.4247C47.7673 26.6468 47.4805 25.9231 46.9727 25.2536ZM51.4583 26.9668H54.1667V11.8429H51.543L47.1137 6.52593C45.8724 5.02929 44.2831 4.28097 42.3459 4.28097H37.6345C35.9606 4.28097 34.5877 4.94067 33.5156 6.26008L27.6194 13.438C27.0927 14.0879 26.8294 14.8263 26.8294 15.6534C26.8294 16.4805 27.0833 17.219 27.5911 17.8688C28.3999 18.8732 29.4343 19.3852 30.6944 19.4049C31.9546 19.4246 32.9984 18.9421 33.826 17.9575L39.2708 11.518C39.741 11.0651 40.2441 10.8534 40.7802 10.8829C41.3162 10.9124 41.7582 11.1783 42.1061 11.6805C42.4541 12.1826 42.534 12.7389 42.3459 13.3494C42.6468 13.7236 43.1735 14.3439 43.9258 15.2103C44.6781 16.0768 45.2423 16.7464 45.6185 17.219C46.1639 17.9279 46.9397 18.9667 47.946 20.3353C48.9522 21.704 49.5587 22.536 49.7656 22.8314C50.7436 24.1311 51.3079 25.5096 51.4583 26.9668ZM59.5833 26.9668C60.3356 26.9668 60.8623 26.6517 61.1632 26.0216C61.4641 25.3914 61.4641 24.7612 61.1632 24.1311C60.8623 23.5009 60.3356 23.1858 59.5833 23.1858C58.831 23.1858 58.3044 23.5009 58.0035 24.1311C57.7025 24.7612 57.7025 25.3914 58.0035 26.0216C58.3044 26.6517 58.831 26.9668 59.5833 26.9668ZM65 9.95243V28.8573C65 29.3693 64.8213 29.8124 64.464 30.1865C64.1066 30.5607 63.6834 30.7478 63.1944 30.7478H50.9505C50.4427 32.0278 49.6716 33.0764 48.6372 33.8937C47.6027 34.7109 46.4272 35.218 45.1107 35.4149C44.49 36.3602 43.733 37.1626 42.8396 37.8223C41.9463 38.482 40.9823 38.93 39.9479 39.1664C39.158 40.2101 38.1753 41.0125 36.9998 41.5738C35.8243 42.135 34.6159 42.3762 33.3746 42.2975C32.2461 42.967 31.0612 43.3559 29.8199 43.4643C28.5786 43.5726 27.3796 43.4347 26.2229 43.0507C25.0662 42.6667 23.9659 42.1399 22.9221 41.4704C21.8783 40.8008 20.9049 40.0033 20.0022 39.0777L11.9054 30.7478H1.80556C1.31655 30.7478 0.893374 30.5607 0.536024 30.1865C0.178675 29.8124 0 29.3693 0 28.8573V9.00719C0 8.49518 0.178675 8.0521 0.536024 7.67794C0.893374 7.30378 1.31655 7.1167 1.80556 7.1167H13.6827C13.946 6.84101 14.388 6.36839 15.0087 5.69884C15.6293 5.02929 16.076 4.55667 16.3487 4.28097C16.6215 4.00528 17.0352 3.61143 17.5901 3.09942C18.1449 2.58741 18.6198 2.21818 19.0148 1.99171C19.4097 1.76525 19.8893 1.51417 20.4536 1.23847C21.0178 0.962775 21.6008 0.770773 22.2027 0.662464C22.8045 0.554155 23.444 0.5 24.1211 0.5H27.4219C29.2839 0.5 30.986 1.05139 32.5282 2.15418C34.0705 1.05139 35.7726 0.5 37.6345 0.5H42.3459C43.0042 0.5 43.6343 0.559078 44.2361 0.677233C44.838 0.795389 45.3693 0.93816 45.8301 1.10555C46.2909 1.27293 46.7752 1.53386 47.283 1.88833C47.7908 2.24279 48.2093 2.54803 48.5384 2.80403C48.8675 3.06003 49.2719 3.44896 49.7515 3.97081C50.2311 4.49267 50.5979 4.90621 50.8518 5.21145C51.1057 5.51668 51.4912 5.9893 52.0085 6.62931C52.5257 7.26932 52.9159 7.74686 53.1793 8.06195H63.1944C63.6834 8.06195 64.1066 8.24903 64.464 8.62318C64.8213 8.99734 65 9.44043 65 9.95243Z" fill="white"/>
</svg>
