<svg width="43" height="43" viewBox="0 0 43 43" fill="none" xmlns="http://www.w3.org/2000/svg">
<path d="M18.4285 30.6312C17.3638 30.5131 16.3165 30.2708 15.308 29.9094C15.3387 29.1846 15.3571 28.429 15.3571 27.6427V27.397V26.6076C16.3093 27.0622 17.3443 27.3785 18.4285 27.5352V19.964C18.4285 18.7421 18.9139 17.5703 19.7779 16.7063C20.642 15.8422 21.8138 15.3568 23.0357 15.3568H30.6068C30.3618 13.6549 29.7122 12.0366 28.7124 10.6376C27.7127 9.23868 26.3919 8.09997 24.861 7.31707C23.3301 6.53417 21.6338 6.12992 19.9144 6.13824C18.1949 6.14656 16.5026 6.56722 14.9793 7.36491C14.7364 6.36033 14.3363 5.40044 13.7938 4.52073C15.7849 3.52689 17.9865 3.02852 20.2115 3.068C22.4365 3.10748 24.6191 3.68364 26.5737 4.74749C28.5283 5.81135 30.1972 7.33144 31.4383 9.17855C32.6795 11.0257 33.4563 13.1451 33.7028 15.3568H38.3928C39.6147 15.3568 40.7866 15.8422 41.6506 16.7063C42.5146 17.5703 43 18.7421 43 19.964V35.3213C43 36.5432 42.5146 37.7151 41.6506 38.5791C40.7866 39.4431 39.6147 39.9285 38.3928 39.9285H23.0357C21.8138 39.9285 20.642 39.4431 19.7779 38.5791C18.9139 37.7151 18.4285 36.5432 18.4285 35.3213V30.6312ZM33.7028 18.4283C33.3538 21.5446 31.956 24.4497 29.7387 26.6671C27.5214 28.8844 24.6162 30.2822 21.5 30.6312V35.3213C21.5 35.7286 21.6618 36.1193 21.9498 36.4073C22.2378 36.6953 22.6284 36.8571 23.0357 36.8571H38.3928C38.8001 36.8571 39.1907 36.6953 39.4787 36.4073C39.7668 36.1193 39.9285 35.7286 39.9285 35.3213V19.964C39.9285 19.5567 39.7668 19.1661 39.4787 18.8781C39.1907 18.5901 38.8001 18.4283 38.3928 18.4283H33.7028ZM30.6068 18.4283H23.0357C22.6284 18.4283 22.2378 18.5901 21.9498 18.8781C21.6618 19.1661 21.5 19.5567 21.5 19.964V27.5352C23.7973 27.2031 25.9256 26.1368 27.567 24.4954C29.2084 22.854 30.2747 20.7257 30.6068 18.4283Z" fill="#8CACA4"/>
<path d="M11.6561 20.1514C11.3336 18.9658 10.8114 17.7772 9.91457 16.8649C11.3643 15.492 12.2857 13.3051 12.2857 10.7497C12.2857 8.60886 11.8526 7.13763 11.0694 5.96126C10.7219 5.45531 10.3202 4.98876 9.87157 4.56989C9.69961 4.40387 9.52555 4.24005 9.34943 4.07846C9.16207 3.90338 8.99007 3.74367 8.76586 3.51945C8.30514 3.05873 8.25293 2.69016 8.25293 2.49665C8.25344 2.3891 8.27106 2.28231 8.30514 2.18029C8.44557 1.87661 8.48298 1.53537 8.41168 1.20847C8.34038 0.881568 8.16427 0.586897 7.91014 0.369267C7.65601 0.151637 7.33776 0.022956 7.00379 0.00279236C6.66982 -0.0173713 6.3384 0.0720859 6.05993 0.25756L6.05379 0.260632L6.04457 0.266775L6.01693 0.285203L5.92479 0.346633C5.46407 0.675251 5.0202 1.02687 4.59486 1.40014C3.827 2.07894 2.82571 3.0833 2.11621 4.28117C1.49686 5.27426 0.999782 6.33856 0.635786 7.45092C0.267214 8.55357 0 9.74837 0 10.7497C0 13.3051 0.921428 15.4889 2.37114 16.868C1.47429 17.7772 0.952143 18.9658 0.629643 20.1545C1.37304e-07 22.4642 0 25.3207 0 27.5291V27.6427C0 33.9638 1.1825 37.7171 2.52164 39.95C3.19429 41.0681 3.89457 41.7898 4.48121 42.2444C4.7938 42.4882 5.134 42.6944 5.49479 42.8587C5.70343 42.9349 5.92144 42.9824 6.14286 43C6.40086 43 6.79093 42.8587 6.79093 42.8587C7.15171 42.6944 7.49191 42.4882 7.8045 42.2444C8.38807 41.7898 9.0945 41.0681 9.76407 39.95C11.1032 37.7202 12.2857 33.9638 12.2857 27.6427V27.5321C12.2857 25.3207 12.2857 22.4673 11.6561 20.1514ZM4.56721 19.015C4.91429 18.6648 5.37807 18.4283 6.14286 18.4283C6.91071 18.4283 7.37143 18.6679 7.7185 19.0119C8.1055 19.402 8.44029 20.0347 8.69214 20.9592C9.202 22.8359 9.21429 25.2992 9.21429 27.6427C9.21429 33.6075 8.09321 36.7649 7.12879 38.3713C6.76021 38.9856 6.41314 39.3818 6.14286 39.6306C5.75667 39.2593 5.42476 38.8353 5.15693 38.3713C4.1925 36.7619 3.07143 33.6075 3.07143 27.6427C3.07143 25.2992 3.08371 22.8359 3.59357 20.9592C3.84543 20.0378 4.18021 19.402 4.56721 19.0119V19.015ZM6.14286 15.3569C4.96036 15.3569 3.07143 14.0423 3.07143 10.7497C3.07143 10.2183 3.23114 9.37673 3.55057 8.42457C3.84166 7.52567 4.24298 6.66628 4.74536 5.86605C5.01257 5.41454 5.35964 4.97532 5.73436 4.57296C5.94629 4.94768 6.22579 5.32547 6.59436 5.69405C6.81857 5.91826 7.11036 6.18855 7.35914 6.42198L7.74 6.77827C8.0625 7.09156 8.31129 7.36492 8.51093 7.66899C8.8795 8.21879 9.21429 9.05115 9.21429 10.7497C9.21429 14.0423 7.32536 15.3569 6.14286 15.3569Z" fill="#8CACA4"/>
</svg>
